<?xml version="1.0" standalone="no"?><!DOCTYPE svg PUBLIC "-//W3C//DTD SVG 1.1//EN" "http://www.w3.org/Graphics/SVG/1.1/DTD/svg11.dtd"><svg class="icon" width="30px" height="30.00px" viewBox="0 0 1024 1024" version="1.1" xmlns="http://www.w3.org/2000/svg"><path d="M511.995907 47.862078c-256.320806 0-464.113363 207.774137-464.113363 464.117456 0 256.302387 207.792557 464.10927 464.113363 464.10927s464.114386-207.807906 464.114386-464.10927C976.10927 255.636215 768.316713 47.862078 511.995907 47.862078zM750.34234 754.352677 286.327214 754.352677l0-41.260729c0-46.170552 104.44784-85.634356 104.44784-85.634356 42.671868-18.810415 64.180741-43.177382 64.180741-43.177382 9.30083-6.077416 6.383384-21.87317 6.383384-21.87317-18.018376-17.642822-32.003901-84.444251-32.003901-84.444251-29.851888-10.579963-27.013237-46.728254-27.013237-46.728254 0-24.025183 17.3389-23.747867 17.3389-23.747867-8.229428-68.603471-2.838651-113.573685 34.414811-120.156614 1.159406-24.234961 25.959232-32.350802 49.566906-32.350802 32.578999 0 42.732244 9.395998 62.900585 12.008498 20.150946 2.577708 36.975123-5.789866 36.975123-5.789866s0.01842 14.891152-9.457396 25.819039c24.242124 16.763802 25.027 37.419238 22.936385 120.469746 0 0 17.32969-0.279363 17.32969 23.747867 0 0 2.839675 36.148291-27.012214 46.728254 0 0-13.985526 66.800405-31.977295 84.444251 0 0-2.943029 15.795754 6.356778 21.87317 0 0 21.544689 24.366967 64.179718 43.177382 0 0 104.46626 39.464827 104.46626 85.634356l0 41.260729L750.34234 754.352677z"  /></svg>