<?xml version="1.0" standalone="no"?><!DOCTYPE svg PUBLIC "-//W3C//DTD SVG 1.1//EN" "http://www.w3.org/Graphics/SVG/1.1/DTD/svg11.dtd"><svg class="icon" style="" viewBox="0 0 1024 1024" version="1.1" xmlns="http://www.w3.org/2000/svg" p-id="2124" xmlns:xlink="http://www.w3.org/1999/xlink" width="30" height="30"><defs><style type="text/css"><![CDATA[

]]></style></defs><path d="M512.325632 0.452608c-282.71104 0-511.894528 229.182464-511.894528 511.894528s229.182464 511.894528 511.894528 511.894528 511.894528-229.182464 511.894528-511.894528S795.036672 0.452608 512.325632 0.452608zM309.53472 766.615552c-28.944384 0-52.407296-23.465984-52.407296-52.410368 0-28.946432 23.463936-52.410368 52.407296-52.410368s52.410368 23.463936 52.410368 52.410368C361.945088 743.149568 338.479104 766.615552 309.53472 766.615552zM519.130112 767.653888c0-144.953344-117.924864-262.875136-262.785024-262.875136L256.345088 394.097664c206.398464 0 373.538816 167.323648 373.538816 373.557248L519.130112 767.654912zM720.362496 767.653888c0-255.87712-208.065536-464.103424-464.017408-464.103424L256.345088 192.861184c317.48608 0 574.785536 257.45408 574.785536 574.792704L720.362496 767.653888z" p-id="2125" fill="#707070"></path></svg>