<?xml version="1.0" standalone="no"?><!DOCTYPE svg PUBLIC "-//W3C//DTD SVG 1.1//EN" "http://www.w3.org/Graphics/SVG/1.1/DTD/svg11.dtd"><svg class="icon" style="" viewBox="0 0 1024 1024" version="1.1" xmlns="http://www.w3.org/2000/svg" p-id="3836" xmlns:xlink="http://www.w3.org/1999/xlink" width="30" height="30"><defs><style type="text/css"><![CDATA[

]]></style></defs><path d="M468.948485 567.226812c-9.943466 0-18.006096 8.194636-18.006096 18.296715 0 10.104125 8.06263 18.294668 18.006096 18.294668 9.955746 0 18.022469-8.190543 18.022469-18.294668C486.96993 575.420425 478.904231 567.226812 468.948485 567.226812z" p-id="3837" fill="#707070"></path><path d="M452.398554 476.909807c-98.516758 13.845333-170.968883 77.792761-161.829735 142.832056 9.140171 65.037249 96.416933 106.535385 194.927551 92.690052 98.528014-13.847379 170.982186-77.794807 161.837922-142.830009C638.192074 504.561587 550.926568 463.062428 452.398554 476.909807zM467.305055 694.718485c-58.59042 11.386328-113.90626-19.583011-123.547851-69.174476-9.639544-49.593512 30.04734-99.029434 88.642876-110.417809 58.599629-11.392468 113.913423 19.576871 123.552967 69.168336C565.595662 633.889071 525.901615 683.324994 467.305055 694.718485z" p-id="3838" fill="#707070"></path><path d="M510.976694 62.34493c-248.313435 0-449.610044 201.298656-449.610044 449.610044 0 248.313435 201.296609 449.610044 449.610044 449.610044 248.311389 0 449.610044-201.296609 449.610044-449.610044C960.586738 263.642562 759.288083 62.34493 510.976694 62.34493zM477.958696 768.477372c-154.202011 0-279.211143-81.914638-279.211143-182.953845 0-101.041254 187.218986-260.579807 258.840186-260.579807 30.0412 0 88.965218 22.73991 47.731094 94.771457-2.874467 5.03876 92.997044-41.87676 145.405671-11.021008 52.408627 30.859845 0 80.45131 0 85.959767 0 5.510504 105.253182 5.510504 105.253182 90.86959C755.976664 686.562734 632.163777 768.477372 477.958696 768.477372zM697.381128 394.368906c-17.365506-20.936845-53.06559-16.07921-53.06559-16.07921-7.460925 0.217964-13.239536-5.201465-13.239536-12.426007l0-5.106298c0-7.191796 5.789866-13.956873 12.923334-15.045671 0 0 42.533722-10.854209 75.083046 18.900465 32.544207 29.756721 18.596544 84.040045 18.596544 84.040045-1.168616 7.275707-8.170077 12.936637-15.394618 12.936637l-11.834536 0c-7.129374 0-11.384281-5.557576-9.298783-12.416797C701.149964 449.173093 714.742541 415.309844 697.381128 394.368906zM820.23313 465.303468c-1.170662 10.789741-11.229762 19.430538-22.107507 19.430538l-8.351202 0c-10.945283 0-18.364253-8.668427-16.721847-19.35993 0 0 15.470343-65.494667-20.334117-117.691469-35.806507-52.194756-119.870088-43.272549-119.870088-43.272549-11.086499 0.190335-19.780509-8.082072-19.780509-18.912745l0-9.6815c0-10.865465 8.731872-19.783579 19.504216-20.001543 0 0 87.599104-8.011464 147.270135 49.293683C839.514265 362.412077 820.23313 465.303468 820.23313 465.303468z" p-id="3839" fill="#707070"></path><path d="M404.399353 595.809801c-18.032702 8.408507-27.458375 26.359344-21.053502 40.098253 6.402827 13.735839 26.216081 18.049075 44.249807 9.643638 18.038842-8.408507 27.456329-26.359344 21.058618-40.098253C442.24531 591.717599 422.434102 587.398224 404.399353 595.809801z" p-id="3840" fill="#707070"></path></svg>